<svg width="30" height="30" fill="none" xmlns="http://www.w3.org/2000/svg"><path fill-rule="evenodd" clip-rule="evenodd" d="M8.737.519h12.429c4.557 0 8.285 3.632 8.285 8.079v3.9c-4.085 1.791-8.207 10.641-14.213 8.718-.495.343-1.636 1.757-1.716 2.83-2.08-.27-4.478-2.596-4.19-5.105-3.462-2.443-.603-6.954 2.142-8.77 5.884-3.891 14.053-.544 9.51 2.238-2.763 1.692-8.672 2.81-8.058-1.344-1.62.456-2.658 3.405-.707 4.942-1.807 1.733-1.46 4.918.473 5.964 1.954-4.94 8.756-4.295 11.504-10.193 2.068-4.436-.998-9.491-7.127-8.715-4.625.586-8.961 4.394-11.13 8.91-2.2 4.58-1.872 10.716 2.646 13.807 5.316 3.639 10.976.27 14.404-4.134 2.021-2.595 3.787-5.47 6.462-7.13v6.912c0 4.447-3.728 8.09-8.285 8.09H8.737c-4.557 0-8.285-3.638-8.285-8.084V8.604C.452 4.156 4.18.518 8.737.518z" fill="#8754AF"/></svg>