<svg width="34" height="31" viewBox="0 0 34 31" fill="none" xmlns="http://www.w3.org/2000/svg">
<path d="M12.8713 28.0537H21.0181C27.807 28.0537 30.5226 25.5754 30.5226 19.3794V11.9443C30.5226 5.74839 27.807 3.27002 21.0181 3.27002H12.8713C6.0824 3.27002 3.36682 5.74839 3.36682 11.9443V19.3794C3.36682 25.5754 6.0824 28.0537 12.8713 28.0537Z" stroke="#8754AF" stroke-width="2" stroke-linecap="round" stroke-linejoin="round"/>
<path d="M16.9332 19.999C19.5578 19.999 21.6854 18.0572 21.6854 15.6619C21.6854 13.2665 19.5578 11.3247 16.9332 11.3247C14.3086 11.3247 12.1809 13.2665 12.1809 15.6619C12.1809 18.0572 14.3086 19.999 16.9332 19.999Z" stroke="#8754AF" stroke-width="2" stroke-linecap="round" stroke-linejoin="round"/>
<path d="M24.5811 9.46578H24.5968" stroke="#8754AF" stroke-width="2" stroke-linecap="round" stroke-linejoin="round"/>
</svg>
