<svg width="45" height="44" fill="none" xmlns="http://www.w3.org/2000/svg"><path fill-rule="evenodd" clip-rule="evenodd" d="M6.446 5.946C4.572 7.819 3.57 10.896 3.57 15.86V28.14c0 4.964 1.002 8.04 2.876 9.914 1.873 1.874 4.95 2.876 9.915 2.876H28.64c4.964 0 8.04-1.002 9.914-2.876 1.874-1.873 2.876-4.95 2.876-9.915V15.862c0-4.965-1.002-8.042-2.876-9.915-1.873-1.874-4.95-2.876-9.915-2.876H16.36c-4.964 0-8.04 1.002-9.914 2.876zm-2.17-2.17C7.005 1.043 11.092 0 16.36 0h12.28c5.267 0 9.354 1.044 12.085 3.775 2.73 2.731 3.775 6.818 3.775 12.085v12.28c0 5.267-1.044 9.354-3.775 12.085C37.994 42.955 33.907 44 28.64 44H16.36c-5.267 0-9.354-1.044-12.085-3.775C1.545 37.494.5 33.407.5 28.14V15.86c0-5.267 1.044-9.354 3.775-12.085z" fill="#8754AF"/><path fill-rule="evenodd" clip-rule="evenodd" d="M29.95 14.224c.6.6.6 1.571 0 2.17L16.568 29.78a1.535 1.535 0 0 1-2.171-2.17L27.78 14.223c.6-.6 1.571-.6 2.17 0zM16.32 15.165a.982.982 0 1 0 0 1.964.982.982 0 0 0 0-1.965zm-4.052.982a4.052 4.052 0 1 1 8.104 0 4.052 4.052 0 0 1-8.104 0zM29.703 26.87a.982.982 0 1 0 0 1.965.982.982 0 0 0 0-1.965zm-4.052.983a4.052 4.052 0 1 1 8.104 0 4.052 4.052 0 0 1-8.104 0z" fill="#8754AF"/></svg>