<svg width="92" height="95" viewBox="0 0 92 95" fill="none" xmlns="http://www.w3.org/2000/svg">
<path d="M19.65 43.2C13.35 43.2 8.5 41.3 5.1 37.5C1.7 33.7 0 28.7 0 22.5C0 15.5 1.7 10 5.1 6C8.5 2 13.35 0 19.65 0C26.05 0 30.95 2 34.35 6C37.75 10 39.45 15.5 39.45 22.5C39.45 28.7 37.7 33.7 34.2 37.5C30.8 41.3 25.95 43.2 19.65 43.2ZM78 1.35L32.55 93.15H13.5L58.8 1.35H78ZM19.65 31.8C22.65 31.8 24.85 30.95 26.25 29.25C27.75 27.55 28.5 25.15 28.5 22.05C28.5 18.45 27.75 15.8 26.25 14.1C24.85 12.3 22.65 11.4 19.65 11.4C16.75 11.4 14.55 12.3 13.05 14.1C11.65 15.9 10.95 18.55 10.95 22.05C10.95 25.15 11.65 27.55 13.05 29.25C14.55 30.95 16.75 31.8 19.65 31.8ZM71.85 94.65C65.55 94.65 60.7 92.75 57.3 88.95C53.9 85.05 52.2 80.05 52.2 73.95C52.2 66.95 53.9 61.45 57.3 57.45C60.7 53.35 65.55 51.3 71.85 51.3C78.25 51.3 83.15 53.35 86.55 57.45C89.95 61.45 91.65 66.95 91.65 73.95C91.65 80.05 89.95 85.05 86.55 88.95C83.15 92.75 78.25 94.65 71.85 94.65ZM71.85 83.1C74.95 83.1 77.2 82.3 78.6 80.7C80 79 80.7 76.6 80.7 73.5C80.7 69.9 80 67.25 78.6 65.55C77.2 63.75 74.95 62.85 71.85 62.85C68.85 62.85 66.65 63.75 65.25 65.55C63.85 67.25 63.15 69.9 63.15 73.5C63.15 79.9 66.05 83.1 71.85 83.1Z" fill="#F5F5F5"/>
</svg>
