<svg width="30" height="30" fill="none" xmlns="http://www.w3.org/2000/svg"><path fill-rule="evenodd" clip-rule="evenodd" d="M4.054 4.054c-1.278 1.277-1.961 3.375-1.961 6.76v8.372c0 3.385.683 5.483 1.961 6.76 1.277 1.277 3.375 1.961 6.76 1.961h8.372c3.385 0 5.483-.683 6.76-1.961 1.277-1.277 1.961-3.375 1.961-6.76v-8.372c0-3.385-.683-5.483-1.961-6.76-1.277-1.278-3.375-1.961-6.76-1.961h-8.372c-3.385 0-5.483.683-6.76 1.961zm-1.48-1.48C4.436.712 7.222 0 10.814 0h8.372c3.592 0 6.378.712 8.24 2.574C29.288 4.436 30 7.222 30 10.814v8.372c0 3.592-.712 6.378-2.574 8.24C25.564 29.288 22.778 30 19.186 30h-8.372c-3.592 0-6.378-.712-8.24-2.574C.712 25.564 0 22.778 0 19.186v-8.372c0-3.592.712-6.378 2.574-8.24z" fill="#fff"/><path fill-rule="evenodd" clip-rule="evenodd" d="M20.08 9.698a1.046 1.046 0 0 1 0 1.48l-9.126 9.126a1.047 1.047 0 0 1-1.48-1.48L18.6 9.698a1.047 1.047 0 0 1 1.48 0zM10.786 10.34a.67.67 0 1 0 0 1.339.67.67 0 0 0 0-1.34zm-2.763.67a2.763 2.763 0 1 1 5.526 0 2.763 2.763 0 0 1-5.526 0zM19.912 18.32a.67.67 0 1 0 0 1.34.67.67 0 0 0 0-1.34zm-2.763.67a2.763 2.763 0 1 1 5.525 0 2.763 2.763 0 0 1-5.525 0z" fill="#fff"/></svg>