<svg width="30" height="31" viewBox="0 0 30 31" fill="none" xmlns="http://www.w3.org/2000/svg">
<path d="M12.5629 3.26807L5.03789 8.18057C2.62539 9.75557 2.62539 13.2806 5.03789 14.8556L12.5629 19.7681C13.9129 20.6556 16.1379 20.6556 17.4879 19.7681L24.9754 14.8556C27.3754 13.2806 27.3754 9.76807 24.9754 8.19307L17.4879 3.28057C16.1379 2.38057 13.9129 2.38057 12.5629 3.26807Z" stroke="#717171" stroke-width="3" stroke-linecap="round" stroke-linejoin="round"/>
<path d="M7.03691 16.4561L7.02441 22.3186C7.02441 23.9061 8.24941 25.6061 9.74941 26.1061L13.7369 27.4311C14.4244 27.6561 15.5619 27.6561 16.2619 27.4311L20.2494 26.1061C21.7494 25.6061 22.9744 23.9061 22.9744 22.3186V16.5186" stroke="#717171" stroke-width="3" stroke-linecap="round" stroke-linejoin="round"/>
<path d="M26.75 18.856V11.356" stroke="#717171" stroke-width="3" stroke-linecap="round" stroke-linejoin="round"/>
</svg>
