<svg width="32" height="33" fill="none" xmlns="http://www.w3.org/2000/svg"><path d="M9.35 27.65A13.063 13.063 0 0 0 16 29.475c7.17 0 13.038-5.867 13.038-13.038C29.038 9.267 23.17 3.4 16 3.4 8.83 3.4 2.962 9.266 2.962 16.437c0 2.347.652 4.563 1.695 6.52L3.403 27.78a1 1 0 0 0 1.242 1.213l4.706-1.344z" stroke="#8754AF" stroke-width="2" stroke-miterlimit="10" stroke-linecap="round" stroke-linejoin="round"/><path d="M21.867 20.15c0 .212-.047.429-.147.64-.1.211-.23.41-.4.599a2.65 2.65 0 0 1-.963.692 2.954 2.954 0 0 1-1.146.223c-.6 0-1.24-.14-1.915-.428a10.323 10.323 0 0 1-2.022-1.162 16.887 16.887 0 0 1-1.927-1.643 16.667 16.667 0 0 1-1.64-1.918 10.45 10.45 0 0 1-1.151-2.001c-.282-.669-.423-1.308-.423-1.918 0-.4.07-.78.212-1.133a2.7 2.7 0 0 1 .675-.98c.376-.37.787-.551 1.222-.551.165 0 .33.035.476.105.153.07.288.176.394.329l1.363 1.918c.106.147.182.282.235.411a.926.926 0 0 1 .082.358c0 .14-.04.282-.123.417a1.993 1.993 0 0 1-.329.416l-.447.464a.313.313 0 0 0-.094.234.53.53 0 0 0 .018.135c.018.047.035.083.047.118.106.193.288.446.546.75.265.306.547.617.852.928.318.31.623.598.935.862.305.258.558.434.758.54.03.012.064.03.106.047a.407.407 0 0 0 .146.023c.1 0 .177-.035.241-.1l.447-.44c.147-.146.288-.258.423-.328a.784.784 0 0 1 .417-.123.94.94 0 0 1 .359.076c.129.053.264.13.41.229l1.946 1.379a.89.89 0 0 1 .323.375c.059.147.094.293.094.458z" stroke="#8754AF" stroke-width="2" stroke-miterlimit="10"/></svg>